<svg width="14" height="15" viewBox="0 0 14 15" fill="none" xmlns="http://www.w3.org/2000/svg">
<circle cx="7" cy="7.1543" r="6.25" stroke="#2AB07A" stroke-width="1.5"/>
<path d="M7.94385 3.2168L7.73975 8.604H6.35938L6.15527 3.2168H7.94385ZM6.10693 10.2744C6.10693 10.0345 6.19287 9.83219 6.36475 9.66748C6.53662 9.50277 6.764 9.42041 7.04688 9.42041C7.32617 9.42041 7.54997 9.50277 7.71826 9.66748C7.89014 9.83219 7.97607 10.0345 7.97607 10.2744C7.97607 10.5179 7.89014 10.722 7.71826 10.8867C7.54997 11.0479 7.32617 11.1284 7.04688 11.1284C6.764 11.1284 6.53662 11.0479 6.36475 10.8867C6.19287 10.722 6.10693 10.5179 6.10693 10.2744Z" fill="#2AB07A"/>
</svg>
