<svg width="12" height="12" viewBox="0 0 12 12" fill="none" xmlns="http://www.w3.org/2000/svg">
<g clip-path="url(#clip0_1_1378)">
<path d="M11.7806 10.7227L9.45802 8.39918C11.1959 6.07679 10.722 2.78529 8.39963 1.04743C6.07725 -0.69043 2.78575 -0.216572 1.04789 2.10582C-0.689972 4.4282 -0.216114 7.7197 2.10627 9.45756C3.97181 10.8536 6.53408 10.8536 8.39963 9.45756L10.7232 11.7811C11.0152 12.0731 11.4886 12.0731 11.7806 11.7811C12.0726 11.4891 12.0726 11.0157 11.7806 10.7237L11.7806 10.7227ZM5.27232 9.00909C3.20829 9.00909 1.53508 7.33589 1.53508 5.27186C1.53508 3.20783 3.20829 1.53463 5.27232 1.53463C7.33634 1.53463 9.00955 3.20783 9.00955 5.27186C9.00736 7.33495 7.33543 9.0069 5.27232 9.00909Z" fill="#9F9EA5"/>
</g>
<defs>
<clipPath id="clip0_1_1378">
<rect width="12" height="12" fill="white"/>
</clipPath>
</defs>
</svg>
