<svg width="18" height="14" viewBox="0 0 18 14" fill="none" xmlns="http://www.w3.org/2000/svg">
<g clip-path="url(#clip0_1_1350)">
<path d="M7.40856 7.31866C7.83124 7.6461 8.4035 7.82994 9.00006 7.82994C9.59662 7.82994 10.1689 7.6461 10.5916 7.31866L17.8358 1.68366C17.669 1.35932 17.3813 1.08121 17.0096 0.885144C16.6378 0.689077 16.1992 0.58402 15.7501 0.583496H2.25006C1.80093 0.58402 1.36228 0.689077 0.990561 0.885144C0.618848 1.08121 0.331083 1.35932 0.164307 1.68366L7.40856 7.31866Z" fill="#8D8D95"/>
<path d="M11.652 8.1435C10.948 8.68964 9.99431 8.99635 9 8.99635C8.00569 8.99635 7.05197 8.68964 6.348 8.1435L0 3.2085V13.4168H18V3.2085L11.652 8.1435Z" fill="#8D8D95"/>
</g>
<defs>
<clipPath id="clip0_1_1350">
<rect width="18" height="14" fill="white"/>
</clipPath>
</defs>
</svg>
