<svg width="16" height="16" viewBox="0 0 16 16" fill="none" xmlns="http://www.w3.org/2000/svg">
<g clip-path="url(#clip0_1_1345)">
<path d="M10.6953 9H5.30467C4.42854 9.00106 3.5886 9.34957 2.96908 9.96908C2.34957 10.5886 2.00106 11.4285 2 12.3047V15.6667H14V12.3047C13.9989 11.4285 13.6504 10.5886 13.0309 9.96908C12.4114 9.34957 11.5715 9.00106 10.6953 9Z" fill="white"/>
<path d="M8 8C10.2091 8 12 6.20914 12 4C12 1.79086 10.2091 0 8 0C5.79086 0 4 1.79086 4 4C4 6.20914 5.79086 8 8 8Z" fill="white"/>
</g>
<defs>
<clipPath id="clip0_1_1345">
<rect width="16" height="16" fill="white"/>
</clipPath>
</defs>
</svg>
