<svg width="91" height="115" viewBox="0 0 91 115" fill="none" xmlns="http://www.w3.org/2000/svg">
<path d="M44.7385 0.141357C55.2564 10.2067 71.9799 18.4079 89.8357 21.8373C89.8487 22.9163 89.9211 28.8903 90.2589 56.4252C90.7063 93.1558 52.2287 111.335 46.2644 114.126C40.4393 111.74 1.21367 94.0507 0.764441 57.3201C0.42845 29.7869 0.356073 23.8129 0.343079 22.7339C18.1024 18.9482 34.4713 10.4144 44.7385 0.141357Z" fill="#D6DBDE"/>
<path d="M44.9383 6.6283C55.2782 15.1191 69.5659 21.7601 85.251 25.3305L85.6242 56.6652C85.7977 71.0047 79.6128 84.0129 67.2374 95.3329C61.0204 100.969 53.926 105.74 46.1827 109.492L45.5857 109.215L44.8394 6.7048C44.8786 6.67759 44.9103 6.6538 44.9383 6.6283Z" fill="#00B89E"/>
<path d="M45.0149 6.6283L45.7664 109.492C38.11 105.924 31.0569 101.377 24.8227 95.9904C12.0877 84.8822 5.53986 71.957 5.36324 57.568L4.97809 26.1235C20.6272 22.2388 34.8107 15.3207 45.0149 6.6283Z" fill="#00D292"/>
<rect x="32" y="51" width="26" height="24" fill="white"/>
<path d="M24 48.2472L24.2143 75.8187C24.2357 78.8869 66.0278 78.6397 66 75.5715L65.7857 48L24 48.2472ZM39.81 58.5621C39.7984 57.7245 40.038 56.8995 40.5036 56.1744C40.9692 55.4493 41.6435 54.851 42.4552 54.4426C43.2669 54.0342 44.186 53.8309 45.1153 53.8542C46.0446 53.8775 46.9497 54.1265 47.735 54.575C48.5203 55.0234 49.1565 55.6546 49.5767 56.4019C49.9968 57.1492 50.1852 57.9848 50.1219 58.8206C50.0586 59.6564 49.746 60.4613 49.2171 61.1502C48.6883 61.8392 47.9627 62.3867 47.1171 62.7348L47.175 70.5666C47.1615 71.0616 46.9347 71.5325 46.5427 71.8795C46.1506 72.2265 45.6241 72.4223 45.0746 72.4256C44.5251 72.4288 43.9957 72.2392 43.5986 71.8969C43.2015 71.5546 42.9679 71.0865 42.9471 70.5917L42.8893 62.7773C41.9771 62.419 41.2004 61.829 40.6544 61.0793C40.1083 60.3297 39.8163 59.453 39.8143 58.5563L39.81 58.5621Z" fill="#606A76"/>
<path d="M28.0215 46L32.1909 45.9712L32.1783 43.8409C32.1932 40.2979 33.539 36.9041 35.9235 34.3961C38.308 31.8881 41.5387 30.4683 44.9145 30.445C48.2903 30.4216 51.5386 31.7966 53.9544 34.2714C56.3702 36.7462 57.7585 40.1211 57.8179 43.6635L57.8306 45.796L62 45.7672L61.9852 43.6325C61.924 33.8455 54.2526 25.9361 44.8766 26.0004C35.5007 26.0647 27.9391 34.0805 28.0004 43.8675L28.0215 46Z" fill="#606A76"/>
</svg>
