<svg version="1.2" xmlns="http://www.w3.org/2000/svg" viewBox="0 0 16 16" width="16" height="16">
	<title>New Project</title>
	<style>
		.s0 { fill: #8d8d95 } 
	</style>
	<path id="path" fill-rule="evenodd" class="s0" d="m7.3 0.4c0.3 0.3 0.4 0.7 0.3 1l-0.6 2.9h2.8l0.7-3.4c0.1-0.5 0.6-0.9 1.1-0.9 0.4 0 0.7 0.2 1 0.4 0.2 0.3 0.3 0.7 0.2 1l-0.6 2.9h1.8c0.4 0 0.8 0.2 1.1 0.6 0.2 0.3 0.2 0.8 0 1.2-0.3 0.3-0.7 0.6-1.1 0.5h-2.3l-0.5 2.4h2.3c0.5 0 0.9 0.2 1.1 0.6 0.2 0.4 0.2 0.8 0 1.2-0.2 0.4-0.6 0.6-1.1 0.6h-2.8l-0.8 3.3c0 0.4-0.3 0.8-0.7 0.9-0.4 0.1-0.9 0.1-1.2-0.2-0.3-0.3-0.5-0.8-0.4-1.2l0.6-2.8h-2.7l-0.8 3.3c0 0.4-0.3 0.8-0.8 0.9-0.4 0.1-0.8 0.1-1.1-0.2-0.3-0.3-0.5-0.8-0.4-1.2l0.6-2.8h-1.8c-0.4 0-0.8-0.2-1-0.6-0.3-0.4-0.3-0.8 0-1.2 0.2-0.4 0.6-0.6 1-0.6h2.3l0.5-2.4h-2.3c-0.5 0.1-0.9-0.2-1.1-0.5-0.2-0.4-0.2-0.9 0-1.2 0.2-0.4 0.6-0.6 1.1-0.6h2.8l0.8-3.4c0.1-0.5 0.5-0.9 1.1-0.9 0.4 0 0.7 0.2 0.9 0.4zm-0.8 6.2l-0.6 2.4h2.9l0.4-2.4z"/>
</svg>