<svg width="14" height="15" viewBox="0 0 14 15" fill="none" xmlns="http://www.w3.org/2000/svg">
<path d="M9.96244 0.181173C11.7186 0.383595 13.2176 1.60086 13.7674 3.26947C14.4786 5.42224 13.5158 7.70632 11.4669 8.73758C10.8405 9.04941 10.0035 9.22995 9.31414 9.19986L9.03239 9.18618L9.04607 9.46793C9.05975 9.79345 9.01598 10.2639 8.93939 10.6059C8.64396 11.9353 7.74948 13.0732 6.51581 13.6914C4.80617 14.5449 2.72725 14.1975 1.35133 12.8298C0.114917 11.5988 -0.31181 9.83448 0.23254 8.19323C0.437696 7.57776 0.785095 7.00332 1.24191 6.52735C1.67411 6.07874 2.06527 5.79426 2.59868 5.5426C3.25518 5.2335 3.76671 5.11861 4.51348 5.11861L4.96482 5.11588L4.95388 4.8396C4.91558 3.98615 5.18092 3.00413 5.65141 2.26557C6.05078 1.63095 6.69361 1.03463 7.35558 0.676285C8.11876 0.265971 9.09804 0.0799627 9.96244 0.181173ZM8.76432 1.0401C7.60724 1.28355 6.6854 1.98929 6.15747 3.03969C6.02343 3.30776 5.89487 3.68251 5.83195 3.99982C5.78271 4.25148 5.76357 5.06937 5.80186 5.21435C5.82101 5.27453 5.86204 5.29915 6.0754 5.37574C7.31455 5.81888 8.33486 6.83919 8.778 8.07834C8.85459 8.2917 8.87921 8.33273 8.93939 8.35188C8.97769 8.36282 9.2184 8.37103 9.47553 8.36829C9.98159 8.36556 10.2633 8.32179 10.6846 8.17681C12.1097 7.68717 13.1 6.36596 13.1738 4.85601C13.2668 2.94395 11.8554 1.26167 9.94056 1.0018C9.66975 0.963505 9.02419 0.985388 8.76432 1.0401ZM3.82962 5.99121C2.52209 6.2456 1.42792 7.20027 1.01214 8.45309C0.869893 8.88529 0.831597 9.1178 0.834332 9.61565C0.834332 10.1272 0.875364 10.3843 1.02855 10.8302C1.34859 11.752 2.01056 12.507 2.8859 12.9474C3.12115 13.065 3.56702 13.2155 3.84877 13.2729C4.18249 13.3386 4.90464 13.3386 5.22195 13.2729C6.73738 12.9529 7.8671 11.8149 8.168 10.3077C8.23365 9.97125 8.23365 9.25183 8.168 8.93179C8.06132 8.42847 7.8671 7.95798 7.58809 7.53672C7.41576 7.27412 6.88235 6.74345 6.61702 6.56565C6.1137 6.23193 5.52832 6.01309 4.92105 5.93924C4.72684 5.91462 4.05393 5.94744 3.82962 5.99121Z" fill="#2AB07A"/>
<path d="M9.35453 1.85515C9.21754 1.92601 9.1703 2.04174 9.1703 2.29683V2.50468L9.00733 2.53303C8.568 2.60861 8.22552 2.9322 8.1334 3.35971C8.11923 3.42821 8.10742 3.68094 8.10742 3.92186C8.10742 4.42968 8.12868 4.50762 8.29638 4.59265C8.38377 4.63753 8.43337 4.63989 9.31202 4.63989H10.2332V4.85247C10.2332 5.117 10.1859 5.22802 10.0442 5.30124C9.95683 5.34611 9.90723 5.34848 9.1703 5.34848C8.43337 5.34848 8.38377 5.35084 8.29638 5.39571C8.19009 5.45004 8.10742 5.58467 8.10742 5.70277C8.10742 5.82087 8.19009 5.9555 8.29638 6.00982C8.37905 6.05234 8.43573 6.05706 8.78058 6.05706H9.1703V6.26964C9.1703 6.53418 9.21754 6.64519 9.35926 6.71841C9.47735 6.77746 9.57183 6.77746 9.68993 6.71841C9.83165 6.64755 9.87889 6.53418 9.87889 6.27436V6.06651L10.0442 6.03817C10.3749 5.98148 10.6583 5.78071 10.8071 5.49492C10.9229 5.27526 10.9418 5.15007 10.9418 4.64934C10.9418 4.14152 10.9205 4.06357 10.7528 3.97854C10.6654 3.93367 10.6158 3.9313 9.73717 3.9313H8.81601V3.71873C8.81601 3.45891 8.85852 3.35499 9.00024 3.27468C9.09236 3.22272 9.10889 3.22272 9.87652 3.22272C10.6158 3.22272 10.6654 3.22036 10.7528 3.17548C10.8591 3.12115 10.9418 2.98652 10.9418 2.86842C10.9418 2.75033 10.8591 2.6157 10.7528 2.56137C10.6701 2.51886 10.6135 2.51413 10.2686 2.51413H9.87889V2.30156C9.87889 2.03702 9.83165 1.92601 9.68993 1.85279C9.57419 1.79374 9.46791 1.79374 9.35453 1.85515Z" fill="#2AB07A"/>
<path d="M3.4629 7.08815C3.32407 7.15996 3.2762 7.27724 3.2762 7.54054V7.75597H3.06077C2.89082 7.75597 2.8238 7.76555 2.7496 7.80384C2.64188 7.8589 2.55811 7.99533 2.55811 8.11502C2.55811 8.2347 2.64188 8.37114 2.7496 8.42619C2.8238 8.46449 2.89082 8.47406 3.06077 8.47406H3.2762V9.5512V10.6283H3.06077C2.89082 10.6283 2.8238 10.6379 2.7496 10.6762C2.64188 10.7313 2.55811 10.8677 2.55811 10.9874C2.55811 11.1071 2.64188 11.2435 2.7496 11.2986C2.8238 11.3369 2.89082 11.3464 3.06077 11.3464H3.2762V11.5619C3.2762 11.8299 3.32407 11.9424 3.46769 12.0166C3.58737 12.0765 3.68311 12.0765 3.8028 12.0166C3.94641 11.9424 3.99429 11.8299 3.99429 11.5619V11.3464H4.35333H4.71238V11.5619C4.71238 11.8299 4.76025 11.9424 4.90387 12.0166C5.02355 12.0765 5.1193 12.0765 5.23898 12.0166C5.38738 11.94 5.43047 11.8323 5.43047 11.5331V11.2866L5.58605 11.2052C6.1318 10.9228 6.30893 10.2142 5.96664 9.67806L5.88526 9.5512L5.96664 9.42434C6.24909 8.98151 6.19404 8.45013 5.82542 8.07672C5.74164 7.99294 5.62914 7.90677 5.55733 7.87326L5.43047 7.81581V7.56927C5.43047 7.3706 5.42089 7.30597 5.3826 7.22937C5.32754 7.12166 5.1911 7.03788 5.07142 7.03788C4.95174 7.03788 4.8153 7.12166 4.76025 7.22937C4.72195 7.30357 4.71238 7.3706 4.71238 7.54054V7.75597H4.35333H3.99429V7.54054C3.99429 7.27246 3.94641 7.15996 3.8028 7.08575C3.68551 7.02591 3.57779 7.02591 3.4629 7.08815ZM5.23898 8.52193C5.34669 8.57699 5.43047 8.71343 5.43047 8.8355C5.43047 8.94561 5.33712 9.09401 5.23419 9.14667C5.1552 9.18737 5.08818 9.19215 4.56876 9.19215H3.99429V8.83311V8.47406H4.56876C5.10015 8.47406 5.15281 8.47885 5.23898 8.52193ZM5.23898 9.95812C5.34669 10.0132 5.43047 10.1496 5.43047 10.2717C5.43047 10.3818 5.33712 10.5302 5.23419 10.5829C5.1552 10.6235 5.08818 10.6283 4.56876 10.6283H3.99429V10.2693V9.91024H4.56876C5.10015 9.91024 5.15281 9.91503 5.23898 9.95812Z" fill="#2AB07A"/>
</svg>
