<svg width="50" height="50" viewBox="0 0 50 50" fill="none" xmlns="http://www.w3.org/2000/svg">
<path d="M25 47.5C27.9553 47.5038 30.8822 46.9236 33.6126 45.7926C36.3429 44.6616 38.8228 43.0022 40.9098 40.9097C43.0022 38.8228 44.6616 36.3429 45.7926 33.6125C46.9236 30.8822 47.5038 27.9553 47.5 25C47.5038 22.0447 46.9235 19.1178 45.7925 16.3875C44.6616 13.6571 43.0022 11.1772 40.9098 9.09024C38.8228 6.99777 36.3429 5.33836 33.6126 4.20738C30.8822 3.07641 27.9553 2.49616 25 2.49999C22.0447 2.49622 19.1178 3.0765 16.3875 4.20747C13.6572 5.33844 11.1773 6.99782 9.09027 9.09024C6.99785 11.1772 5.33847 13.6571 4.2075 16.3875C3.07653 19.1178 2.49625 22.0447 2.50002 25C2.49619 27.9553 3.07644 30.8822 4.20741 33.6125C5.33839 36.3429 6.9978 38.8228 9.09027 40.9097C11.1773 43.0022 13.6572 44.6615 16.3875 45.7925C19.1178 46.9235 22.0447 47.5038 25 47.5V47.5Z" stroke="white" stroke-width="4" stroke-linejoin="round"/>
<path fill-rule="evenodd" clip-rule="evenodd" d="M25 39.625C25.7459 39.625 26.4613 39.3287 26.9887 38.8012C27.5162 38.2738 27.8125 37.5584 27.8125 36.8125C27.8125 36.0666 27.5162 35.3512 26.9887 34.8238C26.4613 34.2963 25.7459 34 25 34C24.2541 34 23.5387 34.2963 23.0113 34.8238C22.4838 35.3512 22.1875 36.0666 22.1875 36.8125C22.1875 37.5584 22.4838 38.2738 23.0113 38.8012C23.5387 39.3287 24.2541 39.625 25 39.625V39.625Z" fill="white"/>
<path d="M25 11.5V29.5" stroke="white" stroke-width="4" stroke-linecap="round" stroke-linejoin="round"/>
</svg>
