<svg width="14" height="15" viewBox="0 0 14 15" fill="none" xmlns="http://www.w3.org/2000/svg">
<path d="M10.5 9.4083C10.5 10.0943 9.94 10.6543 9.254 10.6543C8.568 10.6543 8.015 10.0943 8.015 9.4083C8.015 8.7223 8.568 8.1693 9.254 8.1693C9.94 8.1693 10.5 8.7223 10.5 9.4083ZM4.781 6.1743C5.467 6.1743 6.02 5.6213 6.02 4.9353C6.02 4.2423 5.467 3.6893 4.781 3.6893C4.088 3.6893 3.535 4.2423 3.535 4.9353C3.535 5.6213 4.088 6.1743 4.781 6.1743ZM3.5 9.6253L4.55 10.6753L10.521 4.7043L9.471 3.6543L3.5 9.6253ZM14 7.1543C14 11.0043 10.85 14.1543 7 14.1543C3.15 14.1543 0 11.0043 0 7.1543C0 3.3043 3.15 0.154297 7 0.154297C10.85 0.154297 14 3.3043 14 7.1543ZM12.6 7.1543C12.6 4.0673 10.087 1.5543 7 1.5543C3.913 1.5543 1.4 4.0673 1.4 7.1543C1.4 10.2413 3.913 12.7543 7 12.7543C10.087 12.7543 12.6 10.2413 12.6 7.1543Z" fill="#2AB07A"/>
</svg>
