<svg width="21" height="17" viewBox="0 0 21 17" fill="none" xmlns="http://www.w3.org/2000/svg">
<g clip-path="url(#clip0_18_82)">
<path d="M10.6507 7.26812C10.6328 7.2459 10.6099 7.22792 10.5838 7.21556C10.5577 7.2032 10.529 7.19678 10.4999 7.19678C10.4709 7.19678 10.4422 7.2032 10.4161 7.21556C10.39 7.22792 10.3671 7.2459 10.3492 7.26812L7.66951 10.5615C7.64742 10.5889 7.63371 10.6218 7.62996 10.6564C7.6262 10.6911 7.63255 10.726 7.64827 10.7573C7.664 10.7886 7.68846 10.8149 7.71887 10.8333C7.74929 10.8517 7.78441 10.8614 7.82025 10.8614H9.58836V16.4953C9.58836 16.5975 9.67449 16.6812 9.77977 16.6812H11.2153C11.3206 16.6812 11.4067 16.5975 11.4067 16.4953V10.8637H13.1796C13.3399 10.8637 13.4284 10.6847 13.3304 10.5639L10.6507 7.26812Z" fill="white"/>
<path d="M17.5172 5.07563C16.4438 2.10932 13.7086 0 10.5047 0C7.30078 0 4.56562 2.10687 3.49219 5.07318C1.48359 5.62568 0 7.54347 0 9.82222C0 12.5356 2.09766 14.7333 4.68516 14.7333H5.625C5.72813 14.7333 5.8125 14.6449 5.8125 14.5369V13.0636C5.8125 12.9555 5.72813 12.8671 5.625 12.8671H4.68516C3.89531 12.8671 3.15234 12.5381 2.59922 11.9414C2.04844 11.3471 1.75547 10.5466 1.78125 9.71663C1.80234 9.06837 2.01328 8.45939 2.39531 7.94618C2.78672 7.42314 3.33516 7.04253 3.94453 6.8731L4.83281 6.63L5.15859 5.73127C5.36016 5.1714 5.64141 4.64837 5.99531 4.17444C6.3447 3.70472 6.75857 3.29179 7.22344 2.94912C8.18672 2.23947 9.32109 1.86377 10.5047 1.86377C11.6883 1.86377 12.8227 2.23947 13.7859 2.94912C14.2523 3.2929 14.6648 3.70543 15.0141 4.17444C15.368 4.64837 15.6492 5.17386 15.8508 5.73127L16.1742 6.62754L17.0602 6.8731C18.3305 7.23161 19.2188 8.4422 19.2188 9.82222C19.2188 10.635 18.9164 11.4011 18.368 11.9757C18.099 12.2592 17.7791 12.4839 17.4266 12.6369C17.0742 12.7899 16.6963 12.8682 16.3148 12.8671H15.375C15.2719 12.8671 15.1875 12.9555 15.1875 13.0636V14.5369C15.1875 14.6449 15.2719 14.7333 15.375 14.7333H16.3148C18.9023 14.7333 21 12.5356 21 9.82222C21 7.54592 19.5211 5.63059 17.5172 5.07563Z" fill="white"/>
</g>
<defs>
<clipPath id="clip0_18_82">
<rect width="21" height="17" fill="white"/>
</clipPath>
</defs>
</svg>
