<svg width="34" height="34" viewBox="0 0 34 34" fill="none" xmlns="http://www.w3.org/2000/svg">
<g clip-path="url(#clip0_24_163)">
<path d="M32.7577 20.8705C30.6208 29.442 21.9392 34.6585 13.3667 32.521C4.79777 30.3841 -0.418687 21.702 1.71917 13.1312C3.85514 4.55871 12.5367 -0.658141 21.1066 1.47877C29.6785 3.61569 34.8946 12.2987 32.7575 20.8706L32.7576 20.8705H32.7577Z" fill="#F7931A"/>
<path d="M24.3171 14.697C24.6355 12.5678 23.0145 11.4232 20.7978 10.6597L21.5169 7.77542L19.7612 7.33793L19.0611 10.1462C18.5996 10.0311 18.1256 9.92266 17.6544 9.81512L18.3596 6.98827L16.6049 6.55078L15.8854 9.4341C15.5034 9.34714 15.1283 9.26119 14.7643 9.17062L14.7664 9.16155L12.3452 8.55694L11.8781 10.4322C11.8781 10.4322 13.1807 10.7308 13.1533 10.7491C13.8642 10.9266 13.9928 11.3972 13.9715 11.7703L13.1523 15.0561C13.2013 15.0686 13.2648 15.0866 13.3349 15.1147C13.2763 15.1002 13.214 15.0843 13.1493 15.0688L12.0011 19.6718C11.9142 19.8878 11.6937 20.212 11.1966 20.0889C11.2142 20.1144 9.92052 19.7704 9.92052 19.7704L9.04883 21.7802L11.3336 22.3498C11.7587 22.4564 12.1752 22.5679 12.5854 22.6728L11.8589 25.5901L13.6126 26.0276L14.3321 23.1412C14.8112 23.2713 15.2761 23.3912 15.7313 23.5043L15.0142 26.3771L16.77 26.8146L17.4965 23.9027C20.4904 24.4693 22.7415 24.2409 23.6891 21.5329C24.4526 19.3526 23.6511 18.0951 22.076 17.275C23.2232 17.0104 24.0873 16.2559 24.3177 14.6972L24.3172 14.6969L24.3171 14.697ZM20.3056 20.3221C19.763 22.5023 16.0922 21.3238 14.902 21.0282L15.8662 17.1633C17.0562 17.4604 20.8727 18.0483 20.3057 20.3221H20.3056ZM20.8486 14.6654C20.3537 16.6486 17.2984 15.641 16.3073 15.394L17.1814 11.8887C18.1725 12.1357 21.3642 12.5969 20.8488 14.6654H20.8486Z" fill="white"/>
</g>
<defs>
<clipPath id="clip0_24_163">
<rect width="33" height="33" fill="white" transform="translate(0.595703 0.795166)"/>
</clipPath>
</defs>
</svg>
