<svg width="34" height="34" viewBox="0 0 34 34" fill="none" xmlns="http://www.w3.org/2000/svg">
<g clip-path="url(#clip0_24_125)">
<circle cx="16.5" cy="17.5" r="16.5" fill="white"/>
<path fill-rule="evenodd" clip-rule="evenodd" d="M23.4735 12.053C23.3677 12.0998 23.2536 12.1241 23.1381 12.1242H5.92197C5.83986 12.1241 5.75954 12.0998 5.69085 12.0542C5.62216 12.0086 5.56809 11.9437 5.53525 11.8675C5.5024 11.7912 5.49222 11.7069 5.50594 11.6249C5.51965 11.5428 5.55668 11.4666 5.61249 11.4056L9.24018 7.45965C9.31874 7.37394 9.41386 7.30555 9.51965 7.25874C9.62543 7.21193 9.73961 7.18771 9.85504 7.18759H27.0712C27.154 7.18586 27.2356 7.209 27.3055 7.2541C27.3754 7.2992 27.4307 7.36425 27.4641 7.44107C27.4977 7.51788 27.508 7.60302 27.4938 7.68578C27.4797 7.76854 27.4418 7.84522 27.3848 7.90617L23.753 11.8521C23.6744 11.9378 23.5793 12.0062 23.4735 12.053ZM23.753 14.959C23.6742 14.8737 23.579 14.8056 23.4732 14.7588C23.3675 14.712 23.2535 14.6876 23.1381 14.687H5.92197C5.83986 14.687 5.75954 14.7113 5.69085 14.7569C5.62216 14.8025 5.56809 14.8674 5.53525 14.9437C5.5024 15.0199 5.49222 15.1042 5.50594 15.1863C5.51965 15.2683 5.55668 15.3445 5.61249 15.4056L9.24018 19.3536C9.31903 19.4389 9.41423 19.507 9.51994 19.5538C9.62566 19.6006 9.73969 19.625 9.85504 19.6256H27.0712C27.1532 19.6252 27.2331 19.6006 27.3016 19.5548C27.37 19.5091 27.4237 19.4442 27.4563 19.368C27.4889 19.2918 27.4989 19.2077 27.485 19.1258C27.4713 19.044 27.4344 18.968 27.3786 18.9071L23.753 14.959ZM27.3848 22.907L23.753 26.8529C23.6744 26.9386 23.5793 27.0071 23.4735 27.0538C23.3677 27.1007 23.2536 27.1249 23.1381 27.125H5.92197C5.83986 27.125 5.75954 27.1007 5.69085 27.0551C5.62216 27.0095 5.56809 26.9446 5.53525 26.8683C5.5024 26.792 5.49222 26.7077 5.50594 26.6257C5.51965 26.5437 5.55668 26.4675 5.61249 26.4064L9.24018 22.4605C9.31874 22.3748 9.41386 22.3064 9.51965 22.2596C9.62543 22.2128 9.73961 22.1885 9.85504 22.1884H27.0712C27.154 22.1867 27.2356 22.2098 27.3055 22.2549C27.3754 22.3 27.4307 22.3651 27.4641 22.4419C27.4977 22.5187 27.508 22.6039 27.4938 22.6866C27.4797 22.7694 27.4418 22.8461 27.3848 22.907Z" fill="url(#paint0_linear_24_125)"/>
</g>
<defs>
<linearGradient id="paint0_linear_24_125" x1="18.7347" y1="35.7806" x2="34.6602" y2="13.6288" gradientUnits="userSpaceOnUse">
<stop offset="0.08" stop-color="#9945FF"/>
<stop offset="0.3" stop-color="#8752F3"/>
<stop offset="0.5" stop-color="#5497D5"/>
<stop offset="0.6" stop-color="#43B4CA"/>
<stop offset="0.72" stop-color="#28E0B9"/>
<stop offset="0.97" stop-color="#19FB9B"/>
</linearGradient>
<clipPath id="clip0_24_125">
<path d="M0.763672 15.7952C0.763672 7.51089 7.4794 0.795166 15.7637 0.795166H18.7637C27.0479 0.795166 33.7637 7.5109 33.7637 15.7952V18.7952C33.7637 27.0794 27.0479 33.7952 18.7637 33.7952H15.7637C7.4794 33.7952 0.763672 27.0794 0.763672 18.7952V15.7952Z" fill="white"/>
</clipPath>
</defs>
</svg>
