<svg width="46" height="45" viewBox="0 0 46 45" fill="none" xmlns="http://www.w3.org/2000/svg">
<path d="M18.5 2.59808C21.2846 0.990381 24.7154 0.990381 27.5 2.59808L37.9856 8.65192C40.7702 10.2596 42.4856 13.2308 42.4856 16.4462V28.5538C42.4856 31.7692 40.7702 34.7404 37.9856 36.3481L27.5 42.4019C24.7154 44.0096 21.2846 44.0096 18.5 42.4019L8.01443 36.3481C5.22982 34.7404 3.51443 31.7692 3.51443 28.5538V16.4462C3.51443 13.2308 5.22982 10.2596 8.01443 8.65192L18.5 2.59808Z" fill="#F69119"/>
<path fill-rule="evenodd" clip-rule="evenodd" d="M30.4608 20.6844C30.7729 18.6105 29.1844 17.4957 27.0124 16.752L27.717 13.9428L25.9966 13.5167L25.3107 16.252C24.8584 16.1398 24.394 16.0342 23.9323 15.9295L24.6232 13.1761L22.9039 12.75L22.1989 15.5583C21.8246 15.4736 21.457 15.3899 21.1004 15.3017L21.1024 15.2929L18.73 14.704L18.2723 16.5305C18.2723 16.5305 19.5487 16.8213 19.5218 16.8392C20.2184 17.012 20.3444 17.4704 20.3235 17.8338L19.5209 21.0342C19.5688 21.0463 19.6311 21.0638 19.6997 21.0912L19.6499 21.0789C19.6074 21.0683 19.5632 21.0573 19.5179 21.0465L18.3928 25.5298C18.3077 25.7402 18.0916 26.056 17.6045 25.9361C17.6218 25.9609 16.3541 25.6259 16.3541 25.6259L15.5 27.5834L17.7388 28.1381C17.9839 28.1992 18.2262 28.262 18.466 28.3242L18.466 28.3242C18.6336 28.3676 18.8 28.4107 18.9654 28.4527L18.2535 31.2942L19.9718 31.7203L20.6769 28.909C21.1463 29.0357 21.6019 29.1525 22.0479 29.2627L21.3452 32.0607L23.0657 32.4868L23.7775 29.6507C26.7111 30.2026 28.917 29.9801 29.8455 27.3425C30.5936 25.219 29.8082 23.9941 28.2649 23.1954C29.389 22.9377 30.2357 22.2027 30.4614 20.6846L30.4609 20.6842L30.4608 20.6844ZM26.5302 26.1631C26.0424 28.1114 22.9744 27.3059 21.5707 26.9374L21.5706 26.9374C21.4444 26.9042 21.3316 26.8746 21.2354 26.8509L22.1801 23.0864C22.2974 23.1155 22.4407 23.1475 22.6031 23.1837L22.6031 23.1837C24.0551 23.5076 27.0299 24.1712 26.5302 26.1631H26.5302ZM22.8943 21.4367C24.0646 21.7471 26.6176 22.4244 27.0622 20.6536H27.0624C27.5164 18.8426 25.0353 18.2966 23.8236 18.0299C23.6872 17.9999 23.567 17.9734 23.4688 17.9491L22.6123 21.3632C22.6931 21.3833 22.788 21.4085 22.8943 21.4367Z" fill="white"/>
</svg>
