<svg width="46" height="46" viewBox="0 0 46 46" fill="none" xmlns="http://www.w3.org/2000/svg">
<path d="M18.5 3.09808C21.2846 1.49038 24.7154 1.49038 27.5 3.09808L37.9856 9.15192C40.7702 10.7596 42.4856 13.7308 42.4856 16.9462V29.0538C42.4856 32.2692 40.7702 35.2404 37.9856 36.8481L27.5 42.9019C24.7154 44.5096 21.2846 44.5096 18.5 42.9019L8.01443 36.8481C5.22982 35.2404 3.51443 32.2692 3.51443 29.0538V16.9462C3.51443 13.7308 5.22982 10.7596 8.01443 9.15192L18.5 3.09808Z" fill="#8CC14F"/>
<path fill-rule="evenodd" clip-rule="evenodd" d="M28.188 17.6353C27.4372 15.7696 25.6541 15.6763 23.4956 16.0494L22.7448 13.4375L21.1494 13.9039L21.9002 16.4226C21.7481 16.4604 21.5806 16.5135 21.404 16.5695C21.1446 16.6517 20.8654 16.7402 20.5863 16.7957L19.8355 14.1838L18.2401 14.6502L18.9909 17.2621C18.8032 17.3088 18.639 17.3554 18.4747 17.402L18.4747 17.4021L18.4747 17.4021C18.3105 17.4487 18.1462 17.4953 17.9586 17.542L15.8 18.2882L16.2693 19.9674C16.2693 19.9674 17.4893 19.5942 17.3955 19.5942C18.0524 19.4076 18.3339 19.6875 18.5216 20.0606L19.3663 23.0457H19.554L19.3663 23.139L20.5863 27.3368C20.5863 27.5233 20.5863 27.8965 20.1171 28.083L18.9909 28.4562L19.1786 30.4151L21.2432 29.8554L22.3694 29.5756L23.1202 32.1875L24.7156 31.7211L23.9648 29.1091C24.4341 29.0159 24.8095 28.9226 25.2787 28.736L26.0295 31.3479L27.6249 30.8815L26.8741 28.2696C29.5019 27.3368 31.1911 26.1241 30.7219 23.5121C30.3465 21.4599 29.1265 20.8069 27.4372 20.9002C28.3757 19.9674 28.7511 19.0345 28.188 17.6353ZM27.6249 23.9785C28.1212 25.7053 25.4818 26.4899 24.0779 26.9071C23.8892 26.9632 23.7228 27.0126 23.5894 27.0569L22.5571 23.5121C22.7051 23.4753 22.8904 23.4208 23.1021 23.3585C24.5013 22.9469 27.0543 22.196 27.6249 23.9785ZM22.3495 21.8512C23.4716 21.5343 25.8903 20.851 25.3725 19.2211C24.948 17.5334 22.6035 18.2885 21.4654 18.655C21.3454 18.6937 21.2389 18.728 21.1494 18.7547L22.0878 21.9263C22.1633 21.9038 22.2514 21.8789 22.3495 21.8512Z" fill="white"/>
</svg>
