<svg width="46" height="46" viewBox="0 0 46 46" fill="none" xmlns="http://www.w3.org/2000/svg">
<path d="M18.5 3.09808C21.2846 1.49038 24.7154 1.49038 27.5 3.09808L37.9856 9.15192C40.7702 10.7596 42.4856 13.7308 42.4856 16.9462V29.0538C42.4856 32.2692 40.7702 35.2404 37.9856 36.8481L27.5 42.9019C24.7154 44.5096 21.2846 44.5096 18.5 42.9019L8.01443 36.8481C5.22982 35.2404 3.51443 32.2692 3.51443 29.0538V16.9462C3.51443 13.7308 5.22982 10.7596 8.01443 9.15192L18.5 3.09808Z" fill="#FCCE1A"/>
<path fill-rule="evenodd" clip-rule="evenodd" d="M19.0975 21.3059H24.2742V24.092H19.0975V29.9639H22.3627C23.655 29.9639 24.7122 29.7872 25.5354 29.4313C26.3586 29.0767 27.0042 28.5855 27.4734 27.9567C27.9533 27.3027 28.2799 26.5462 28.4286 25.7446C28.6019 24.8405 28.6863 23.9211 28.6806 23C28.6863 22.0789 28.6019 21.1595 28.4286 20.2554C28.2801 19.4538 27.9534 18.6972 27.4734 18.0433C27.0042 17.4145 26.3574 16.9233 25.5354 16.5687C24.7122 16.2128 23.655 16.0361 22.3627 16.0361H19.0975V21.3072V21.3059ZM15.7784 24.092H14V21.3072H15.7784V13.25H23.637C25.089 13.25 26.3454 13.5059 27.4074 14.0142C28.4694 14.5248 29.3358 15.2207 30.0089 16.1043C30.6809 16.9867 31.1813 18.0202 31.5089 19.2036C31.8365 20.387 31.9997 21.6533 31.9997 23C32.0079 24.2824 31.8424 25.5598 31.5077 26.7964C31.1813 27.9786 30.6809 29.0133 30.0077 29.8957C29.3358 30.7793 28.4694 31.4752 27.4074 31.9858C26.3454 32.4953 25.0878 32.75 23.637 32.75H15.7784V24.092Z" fill="white"/>
</svg>
