<svg width="46" height="46" viewBox="0 0 46 46" fill="none" xmlns="http://www.w3.org/2000/svg">
<path d="M18.5 2.84808C21.2846 1.24038 24.7154 1.24038 27.5 2.84808L37.9856 8.90192C40.7702 10.5096 42.4856 13.4808 42.4856 16.6962V28.8038C42.4856 32.0192 40.7702 34.9904 37.9856 36.5981L27.5 42.6519C24.7154 44.2596 21.2846 44.2596 18.5 42.6519L8.01443 36.5981C5.22982 34.9904 3.51443 32.0192 3.51443 28.8038V16.6962C3.51443 13.4808 5.22982 10.5096 8.01443 8.90192L18.5 2.84808Z" fill="#627FE9"/>
<path d="M22.998 10.75V19.6218L30.495 22.9724L22.998 10.75Z" fill="white" fill-opacity="0.602"/>
<path d="M22.998 10.75L15.5 22.9724L22.998 19.6218V10.75Z" fill="white"/>
<path d="M22.998 28.7218V34.75L30.5 24.3689L22.998 28.7218Z" fill="white" fill-opacity="0.602"/>
<path d="M22.998 34.75V28.7208L15.5 24.3689L22.998 34.75Z" fill="white"/>
<path d="M22.998 27.3263L30.495 22.9724L22.998 19.6238V27.3263Z" fill="white" fill-opacity="0.2"/>
<path d="M15.5 22.9724L22.998 27.3263V19.6238L15.5 22.9724Z" fill="white" fill-opacity="0.602"/>
</svg>
