<svg width="46" height="46" viewBox="0 0 46 46" fill="none" xmlns="http://www.w3.org/2000/svg">
<path d="M18.5 3.34808C21.2846 1.74038 24.7154 1.74038 27.5 3.34808L37.9856 9.40192C40.7702 11.0096 42.4856 13.9808 42.4856 17.1962V29.3038C42.4856 32.5192 40.7702 35.4904 37.9856 37.0981L27.5 43.1519C24.7154 44.7596 21.2846 44.7596 18.5 43.1519L8.01443 37.0981C5.22982 35.4904 3.51443 32.5192 3.51443 29.3038V17.1962C3.51443 13.9808 5.22982 11.0096 8.01443 9.40192L18.5 3.34808Z" fill="#232830"/>
<path d="M29.9209 15.75H32.75L26.8625 21.6487C24.7303 23.7838 21.2735 23.7838 19.1398 21.6487L13.25 15.75H16.0814L20.5544 20.2309C21.9104 21.5833 24.0884 21.5833 25.4445 20.2309L29.9209 15.75Z" fill="white"/>
<path d="M16.0703 31.5H13.25L19.1533 25.5936C21.2774 23.4688 24.7211 23.4688 26.8467 25.5936L32.75 31.5H29.9316L25.4375 27.0045C24.0866 25.6586 21.9169 25.6586 20.5659 27.0045L16.0703 31.5Z" fill="white"/>
</svg>
